# xmcd
#
# Track frame offsets: 
#        150
#        27062
#        53750
#        76023
#        103785
#        127995
#        153996
#        178423
#        205659
#        231419
#
# Disc length: 3375 seconds
#
# Revision: 0
# Processed by: cddbd v1.5.2PL0 Copyright (c) Steve Scherf et al.
# Submitted via: ExactAudioCopy v1.0b3
#
DISCID=780d2d0a
DTITLE=Manh Quynh - Hoa Trinh Nu
DYEAR=2000
DGENRE=
TTITLE0=Noi niem chua tron
TTITLE1=Sao danh xa anh
TTITLE2=Tinh dem pho cu
TTITLE3=Hoa trinh nu
TTITLE4=Buon ma chi em
TTITLE5=Thuong han
TTITLE6=Suong lanh chieu dong
TTITLE7=Canh thu bang huu
TTITLE8=Loi ta tu
TTITLE9=Xin goi nhau la co nhan
EXTD=
EXTT0=
EXTT1=
EXTT2=
EXTT3=
EXTT4=
EXTT5=
EXTT6=
EXTT7=
EXTT8=
EXTT9=
PLAYORDER=
